<svg xmlns="http://www.w3.org/2000/svg" width="30.062" height="30.117" viewBox="0 0 30.062 30.117">
  <g id="Icon_" data-name="Icon " transform="translate(0.829 0.864)">
    <rect id="Area_" data-name="Area " width="29" height="28" transform="translate(-0.137 0.233)" fill="rgba(253,73,198,0.35)" opacity="0"/>
    <g id="Icon" transform="translate(0.027 0.002)">
      <path id="Path" d="M31.449,14.744H30.3v-.06H17.525v5.68H25.55a8.527,8.527,0,1,1-2.373-9.2l4.017-4.017a14.151,14.151,0,1,0,4.254,7.6Z" transform="translate(-3.352 -3.327)" fill="none" stroke="#34ffc8" stroke-linecap="round" stroke-linejoin="round" stroke-width="1.667"/>
      <path id="Path-2" data-name="Path" d="M5.255,10.95l4.683,3.431a8.531,8.531,0,0,1,13.6-3.185l4.031-4.028A14.223,14.223,0,0,0,5.255,10.955Z" transform="translate(-3.64 -3.335)" fill="none" stroke="#34ffc8" stroke-linecap="round" stroke-linejoin="round" stroke-width="1.667"/>
      <path id="Path-3" data-name="Path" d="M17.847,34.739a14.182,14.182,0,0,0,9.555-3.7l-4.412-3.73a8.527,8.527,0,0,1-13.182-3.93L5.167,26.959A14.237,14.237,0,0,0,17.847,34.739Z" transform="translate(-3.623 -6.342)" fill="none" stroke="#34ffc8" stroke-linecap="round" stroke-linejoin="round" stroke-width="1.667"/>
      <path id="Path-4" data-name="Path" d="M33.973,16.725H32.825v-.058H20v5.7h8.054a8.578,8.578,0,0,1-2.912,3.969h0l4.41,3.732a13.782,13.782,0,0,0,4.7-10.55A14.293,14.293,0,0,0,33.973,16.725Z" transform="translate(-5.877 -5.369)" fill="none" stroke="#34ffc8" stroke-linecap="round" stroke-linejoin="round" stroke-width="1.667"/>
    </g>
  </g>
</svg>
