<svg xmlns="http://www.w3.org/2000/svg" width="28" height="28" viewBox="0 0 28 28">
  <g id="twitter" transform="translate(-0.228 -0.233)">
    <rect id="Area_" data-name="Area " width="28" height="28" transform="translate(0.228 0.233)" fill="rgba(253,73,198,0.35)" opacity="0"/>
    <g id="Icon" transform="translate(1.183 3.538)">
      <path id="Path" d="M26.867,2.5a12.914,12.914,0,0,1-3.716,1.81,5.3,5.3,0,0,0-9.3,3.55V9.047A12.615,12.615,0,0,1,3.2,3.687s-4.733,10.65,5.917,15.384A13.771,13.771,0,0,1,.833,21.436c10.65,5.917,23.667,0,23.667-13.608a5.309,5.309,0,0,0-.1-.983A9.126,9.126,0,0,0,26.867,2.5Z" transform="translate(-0.833 -2.491)" fill="none" stroke="#34ffc8" stroke-linecap="round" stroke-linejoin="round" stroke-width="1.667"/>
    </g>
  </g>
</svg>
